<svg xmlns="http://www.w3.org/2000/svg" width="3.778in" height="2.833in" viewBox="0 0 272 204"><defs><style>.a{fill:#d2fffa;}.b{fill:#fff;}.c{fill:#7bfff0;}.d{fill:#3a36e4;}</style></defs><rect class="a" width="272" height="204"/><rect class="b" x="77.923" y="35.536" width="145.086" height="116.928"/><path class="c" d="M82.848,109.8,112,81.816a10.006,10.006,0,0,1,14.292.444l26.323,28.612a10.005,10.005,0,0,0,13.809.879l18.525-15.6a10.008,10.008,0,0,1,13.461.519l19.878,19.548a10,10,0,0,1,2.99,7.134v26.8a.588.588,0,0,1-.588.588H79.651l.12-33.755A10.009,10.009,0,0,1,82.848,109.8Z"/><circle class="c" cx="160.83" cy="74.739" r="10.363"/><path class="a" d="M187.911,79.172a4.04,4.04,0,0,1-4-4.592,15.448,15.448,0,0,1,3.17-7.779c3.63-4.371,13.357-6.539,18.339.414.364-6.74,4.934-14.238,15.4-12.541,6.279,1.018,9.134,6.869,9.371,11.353,6.429-6.833,15.013-.851,16.464,5.49a11.133,11.133,0,0,1,.155,4.337,4.015,4.015,0,0,1-3.977,3.318Z"/><path class="a" d="M55.875,122.627a4.632,4.632,0,0,1-4.775-5.142,16.724,16.724,0,0,1,3.781-8.709c4.329-4.894,15.93-7.321,21.871.464.434-7.546,5.884-15.941,18.362-14.041,7.488,1.14,10.894,7.69,11.176,12.71,7.667-7.649,17.9-.952,19.635,6.147a11.691,11.691,0,0,1,.185,4.856,4.715,4.715,0,0,1-4.742,3.715Z"/><path class="d" d="M223.01,153.964H77.923a1.5,1.5,0,0,1-1.5-1.5V35.536a1.5,1.5,0,0,1,1.5-1.5H223.01a1.5,1.5,0,0,1,1.5,1.5V152.464A1.5,1.5,0,0,1,223.01,153.964Zm-143.587-3H221.51V37.036H79.423Z"/><rect class="b" x="46.793" y="115.026" width="68.788" height="55.438"/><path class="c" d="M49.128,150.236l13.823-13.268a4.745,4.745,0,0,1,6.777.211l12.48,13.566a4.744,4.744,0,0,0,6.547.416l8.783-7.4a4.744,4.744,0,0,1,6.382.246l9.425,9.268a4.745,4.745,0,0,1,1.418,3.383v12.7a.279.279,0,0,1-.279.279H47.612l.057-16A4.749,4.749,0,0,1,49.128,150.236Z"/><circle class="c" cx="86.101" cy="133.613" r="4.913"/><path class="a" d="M98.941,135.715a1.916,1.916,0,0,1-1.9-2.177,7.333,7.333,0,0,1,1.5-3.688c1.721-2.073,6.333-3.1,8.695.2.173-3.195,2.339-6.751,7.3-5.946,2.977.483.223,11.615.223,11.615Z"/><path class="a" d="M36.34,156.318a2.2,2.2,0,0,1-2.264-2.438,7.925,7.925,0,0,1,1.793-4.129c2.052-2.32,7.552-3.471,10.369.22.206-3.578,2.79-7.558,8.706-6.657a6.357,6.357,0,0,1,5.3,6.026c3.635-3.627,8.489-.452,9.309,2.914a5.55,5.55,0,0,1,.088,2.3,2.237,2.237,0,0,1-2.249,1.762Z"/><path class="d" d="M115.582,171.964H46.793a1.5,1.5,0,0,1-1.5-1.5V115.026a1.5,1.5,0,0,1,1.5-1.5h68.789a1.5,1.5,0,0,1,1.5,1.5v55.438A1.5,1.5,0,0,1,115.582,171.964Zm-67.289-3h65.789V116.526H48.293Z"/><path class="d" d="M63.132,104.772a1.5,1.5,0,0,1-1.5-1.5v-6a1.5,1.5,0,0,1,3,0v6A1.5,1.5,0,0,1,63.132,104.772Zm0-14a1.5,1.5,0,0,1-1.5-1.5v-6a1.5,1.5,0,0,1,3,0v6A1.5,1.5,0,0,1,63.132,90.772Zm0-14a1.5,1.5,0,0,1-1.5-1.5v-6a1.5,1.5,0,0,1,3,0v6A1.5,1.5,0,0,1,63.132,76.772Zm0-14a1.5,1.5,0,0,1-1.5-1.5v-6a1.5,1.5,0,0,1,3,0v6A1.5,1.5,0,0,1,63.132,62.772Zm0-14a1.5,1.5,0,0,1-1.5-1.5v-6a1.5,1.5,0,0,1,3,0v6A1.5,1.5,0,0,1,63.132,48.772Z"/><path class="d" d="M68.132,44.314a1.5,1.5,0,0,1-1.061-.439l-3.939-3.939-3.94,3.939a1.5,1.5,0,0,1-2.121-2.121l5-5a1.5,1.5,0,0,1,2.121,0l5,5a1.5,1.5,0,0,1-1.06,2.56Z"/><path class="d" d="M217.93,168.512h-.006l-6-.025a1.5,1.5,0,0,1,.006-3h.006l6,.025a1.5,1.5,0,0,1-.006,3Zm-14-.056h-.006l-6-.024a1.5,1.5,0,0,1,.006-3h.006l6,.024a1.5,1.5,0,0,1-.006,3Zm-14-.056h-.006l-6-.024a1.5,1.5,0,0,1,.006-3h.006l6,.024a1.5,1.5,0,0,1-.006,3Zm-14-.055h-.006l-6-.025a1.5,1.5,0,0,1,.006-3h.006l6,.025a1.5,1.5,0,0,1-.006,3Zm-14-.056h-.006l-6-.024a1.5,1.5,0,1,1,.012-3l6,.024a1.5,1.5,0,0,1-.006,3Zm-14-.056h-.006l-6-.024a1.5,1.5,0,0,1,.006-3h.006l6,.024a1.5,1.5,0,0,1-.006,3Zm-14-.056h-.006l-6-.024a1.5,1.5,0,0,1,.006-3h.006l6,.024a1.5,1.5,0,0,1-.006,3Z"/><path class="d" d="M215.659,173.337a1.5,1.5,0,0,1-1.06-2.561l3.939-3.939L214.6,162.9a1.5,1.5,0,1,1,2.121-2.121l5,5a1.5,1.5,0,0,1,0,2.121l-5,5A1.5,1.5,0,0,1,215.659,173.337Z"/></svg>